<svg xmlns="http://www.w3.org/2000/svg" viewBox="0 0 19.62 31.28"><defs></defs><title>Asset 3</title><g id="Layer_2" data-name="Layer 2"><g id="Layer_1-2" data-name="Layer 1"><path class="cls-1" d="M5.19,31.24a.34.34,0,0,0,.44-.48,7.71,7.71,0,0,1-.45-7.66c2.56-5.71,4.12-8.67,4.12-8.67a20.53,20.53,0,0,0,3.08,6.52c2.16,3,3.35,6.67,1.44,9.76a.34.34,0,0,0,.44.48,9.55,9.55,0,0,0,5.31-8.43,16.41,16.41,0,0,0-.88-6.13c-1.06-3.29-2.37-4.83-3.13-5.49a.34.34,0,0,0-.56.28c.22,3.55-1.12,4.45-1.88,2.42a12.39,12.39,0,0,1-.48-3.92A13.39,13.39,0,0,0,10,1.76,9.25,9.25,0,0,0,8.33.07a.34.34,0,0,0-.54.29c.14,1.93,0,7.46-4.85,14.06C-1.48,20.55.23,25.26.84,26.53A10,10,0,0,0,5.19,31.24Z"/></g></g></svg>