<svg xmlns="http://www.w3.org/2000/svg" viewBox="0 0 19.53 31.62"><defs><style>.cls-1{fill:#5e95cf;}</style></defs><title>Asset 2</title><g id="Layer_2" data-name="Layer 2"><g id="Layer_1-2" data-name="Layer 1"><path class="cls-1" d="M19.53,19.36c0,6.77-4.37,12.25-9.76,12.25S0,26.13,0,19.36,7,3.45,9.76,0C12.8,3.81,19.53,12.59,19.53,19.36ZM11,27a1,1,0,0,0-.89-1.09c-4.37,0-5.57-5.4-5.62-5.63h0a.9.9,0,0,0-1.09-.78,1.12,1.12,0,0,0-.65,1.32c.52,2.51,2.73,7.26,7.35,7.26A1,1,0,0,0,11,27Z"/></g></g></svg>