<svg xmlns="http://www.w3.org/2000/svg" viewBox="0 0 32.96 32.96"><defs><style>.cls-1{fill:#5fbb46;}</style></defs><title>Asset 4</title><g id="Layer_2" data-name="Layer 2"><g id="Layer_1-2" data-name="Layer 1"><path class="cls-1" d="M16.48,8.22a8.26,8.26,0,1,0,8.25,8.26A8.26,8.26,0,0,0,16.48,8.22Z"/><path class="cls-1" d="M16.48,5.8a1.61,1.61,0,0,1-1.61-1.61V1.61a1.61,1.61,0,0,1,3.22,0V4.19A1.61,1.61,0,0,1,16.48,5.8Z"/><path class="cls-1" d="M16.48,27.16a1.61,1.61,0,0,0-1.61,1.61v2.58a1.61,1.61,0,1,0,3.22,0V28.77A1.61,1.61,0,0,0,16.48,27.16Z"/><path class="cls-1" d="M24,8.93a1.61,1.61,0,0,1,0-2.28l1.82-1.82A1.61,1.61,0,0,1,28.13,7.1L26.31,8.93A1.61,1.61,0,0,1,24,8.93Z"/><path class="cls-1" d="M8.93,24a1.61,1.61,0,0,0-2.28,0L4.83,25.85A1.61,1.61,0,0,0,7.1,28.13l1.82-1.82A1.61,1.61,0,0,0,8.93,24Z"/><path class="cls-1" d="M27.16,16.48a1.61,1.61,0,0,1,1.61-1.61h2.58a1.61,1.61,0,1,1,0,3.22H28.77A1.61,1.61,0,0,1,27.16,16.48Z"/><path class="cls-1" d="M5.8,16.48a1.61,1.61,0,0,0-1.61-1.61H1.61a1.61,1.61,0,1,0,0,3.22H4.19A1.61,1.61,0,0,0,5.8,16.48Z"/><path class="cls-1" d="M24,24a1.61,1.61,0,0,1,2.28,0l1.82,1.82a1.61,1.61,0,0,1-2.28,2.28L24,26.31A1.61,1.61,0,0,1,24,24Z"/><path class="cls-1" d="M8.93,8.93a1.61,1.61,0,0,0,0-2.28L7.1,4.83A1.61,1.61,0,1,0,4.83,7.1L6.65,8.93A1.61,1.61,0,0,0,8.93,8.93Z"/></g></g></svg>