<svg id="Layer_1" data-name="Layer 1" xmlns="http://www.w3.org/2000/svg" viewBox="0 0 448 384.1"><defs><style>.cls-1{fill:#f2efed;}</style></defs><title>googleplus</title><path class="cls-1" d="M210.1,211.6l-18.2-13.7-.1-.1c-5.8-4.6-10-8.3-10-14.7,0-7,5-11.8,10.9-17.4l.5-.4c20-15.2,44.7-34.3,44.7-74.6C237.9,63.8,226,46,214.6,33h13L288,0H154.5C129.2,0,91.8,3.2,59.9,28.6l-.1.3C38,46.9,25,73.4,25,99.5a81.93,81.93,0,0,0,23.9,57.4C70.3,178.5,97.2,183,116,183c1.5,0,3,0,4.5-.1a39.38,39.38,0,0,0-1.2,10.3,46.56,46.56,0,0,0,8.1,26.2c-24,1.9-58.1,6.5-84.9,22.3C3.1,264.4,0,297.7,0,307.3c0,38.2,35.7,76.8,115.5,76.8,91.6,0,139.5-49.8,139.5-99C255,248,232.2,229.5,210.1,211.6ZM84.7,75.9c0-13.4,3-23.5,9.3-30.9,6.5-7.9,18.2-13.1,29-13.1,19.9,0,32.9,15,40.4,27.6,9.2,15.5,14.9,36.1,14.9,53.6,0,4.9,0,20-10.2,29.8-7,6.7-18.7,11.4-28.6,11.4-20.5,0-33.5-14.7-40.7-27A108,108,0,0,1,84.7,75.9ZM205.8,304c0,27.4-25.2,44.5-65.8,44.5-48.1,0-80.3-20.6-80.3-51.3,0-26.1,21.5-36.8,37.8-42.5,18.9-6.1,44.3-7.3,50.1-7.3,3.9,0,6.1,0,8.7.2C192.9,272.8,205.8,283.7,205.8,304Z" transform="translate(0 0)"/><polygon class="cls-1" points="370 78 370 0 336 0 336 78 256 78 256 112 336 112 336 193 370 193 370 112 448 112 448 78 370 78"/></svg>